<?xml version="1.0" encoding="utf-8"?>
<!-- Generator: Adobe Illustrator 26.0.3, SVG Export Plug-In . SVG Version: 6.00 Build 0)  -->
<svg version="1.1" id="Layer_1" xmlns="http://www.w3.org/2000/svg" xmlns:xlink="http://www.w3.org/1999/xlink" x="0px" y="0px"
	 viewBox="0 0 1080 1080" style="enable-background:new 0 0 1080 1080;" xml:space="preserve">
<style type="text/css">
	.st0{fill:#4E5AA5;stroke:#FFFFFF;stroke-width:16.5819;stroke-linecap:round;stroke-linejoin:round;stroke-miterlimit:10;}
	.st1{fill:#F6A41D;stroke:#FFFFFF;stroke-width:16.5819;stroke-linecap:round;stroke-linejoin:round;stroke-miterlimit:10;}
	
		.st2{fill-rule:evenodd;clip-rule:evenodd;fill:#4E5AA5;stroke:#FFFFFF;stroke-width:16.5819;stroke-linecap:round;stroke-linejoin:round;stroke-miterlimit:10;}
	.st3{fill:#4E5AA5;}
	.st4{fill:#F6A41D;}
	.st5{fill-rule:evenodd;clip-rule:evenodd;fill:#4E5AA5;}
</style>
<g>
	<g>
		<g>
			<path class="st0" d="M369.24,551.37c6.19-7.24,9.33-15.71,9.33-25.17c0-11.93-4.87-21.83-14.47-29.43
				c-9.15-7.24-20.97-10.91-35.15-10.91h-32.09v131.16h29.11v-39.26l26.48,39.26h34.2l-36.2-53.33
				C358.42,560.78,364.72,556.65,369.24,551.37z M348.72,527.14c0,3.62-0.98,6.27-3.08,8.32c-2.52,2.46-7.95,5.28-19.68,5.82v-28.05
				c5.25,0.2,9.4,0.68,12.38,1.41c3.35,0.83,5.9,2.29,7.81,4.47C347.88,521.09,348.72,523.72,348.72,527.14z"/>
			<path class="st0" d="M506.65,502.11c-13.93-13.41-30.77-20.22-50.05-20.22c-19.69,0-36.8,6.74-50.84,20.04
				c-14.15,13.39-21.32,29.73-21.32,48.56c0,19.4,7.05,36.15,20.96,49.78c13.87,13.59,30.91,20.49,50.65,20.49
				c19.98,0,37.1-6.85,50.88-20.35c13.82-13.54,20.83-30.33,20.83-49.92C527.75,531.87,520.65,515.59,506.65,502.11z M457.25,590.91
				c-12.26,0-22.3-3.81-30.69-11.65c-8.26-7.72-12.28-16.89-12.28-28.03c0-11.01,3.93-20.19,12.01-28.08
				c8.12-7.93,17.61-11.78,29.01-11.78c12.12,0,22.01,3.8,30.23,11.61c8.13,7.72,12.08,16.96,12.08,28.25
				c0,10.83-3.91,19.95-11.94,27.87C477.63,587.04,468.33,590.91,457.25,590.91z"/>
			<path class="st0" d="M571.18,485.86h-35.15v131.16h35.33c23.57,0,41.93-6.7,54.59-19.9c12.58-13.13,18.97-28.5,18.97-45.68
				c0-17.01-6.17-32.31-18.33-45.5C614.3,492.62,595.66,485.86,571.18,485.86z M565.14,514.6h1.68c11.26,0,20.23,1.15,26.64,3.43
				c5.89,2.09,10.89,6.16,15.27,12.44c4.4,6.31,6.54,13.17,6.54,20.97c0,6.21-1.33,11.72-4.06,16.85
				c-2.73,5.12-6.29,9.11-10.88,12.19c-4.67,3.13-9.64,5.18-14.79,6.1c-4.71,0.84-11.56,1.34-20.4,1.48V514.6z"/>
			<polygon class="st0" points="678.23,560.43 727.77,560.43 727.77,531.51 678.23,531.51 678.23,514.97 727.77,514.97 
				727.77,485.86 649.31,485.86 649.31,617.02 727.77,617.02 727.77,588.1 678.23,588.1 			"/>
			<path class="st0" d="M812.37,552.01c-3.12-3.91-7.12-7.5-11.89-10.67c-4.6-3.06-10.74-6.22-18.76-9.67
				c-8.64-3.71-12.61-6.37-14.42-7.94c-2.22-1.93-2.5-3.47-2.5-4.59c0-1.43,0.33-3.13,2.74-4.88c2.46-1.79,5.93-2.69,10.31-2.69
				c5.3,0,7.74,1.03,8.72,1.65c2.35,1.47,5.1,3.84,8.18,7.03l4.1,4.26l22.66-18.16l-3.89-5.04c-5.07-6.56-11.5-11.52-19.13-14.72
				c-7.39-3.11-14.82-4.68-22.09-4.68c-11.28,0-21.05,3.55-29.04,10.55c-8.24,7.22-12.41,16.14-12.41,26.52
				c0,4.32,0.76,8.45,2.26,12.28c1.46,3.73,3.74,7.46,6.79,11.11c3.03,3.62,6.65,6.78,10.78,9.39c3.93,2.48,9.26,5.09,16.28,7.97
				c7.66,3.14,11.44,5.3,13.25,6.55c2.33,1.61,4.23,3.61,5.82,6.13c1.39,2.2,2.07,4.23,2.07,6.21c0,3.52-1.18,6.23-3.71,8.51
				c-2.69,2.42-6.06,3.6-10.32,3.6c-5.99,0-14.7-1.67-21.07-16.08l-2.27-5.14l-28.36,7.99l2.49,6.61c4.52,12,11.18,21.2,19.79,27.34
				c8.66,6.19,18.75,9.33,29.98,9.33c11.84,0,22.08-4.11,30.44-12.21c8.42-8.16,12.69-18.18,12.69-29.78
				c0-4.92-0.79-9.67-2.36-14.11C817.92,560.21,815.53,555.96,812.37,552.01z"/>
			<path class="st0" d="M242.51,506.82c-4.63,2.65-9.59,5.76-14.77,9.41c-15.06,10.6-33.98,27.22-52.1,52.31h45.27l22.06,48.48
				h49.69L242.51,506.82z"/>
			<path class="st1" d="M82.59,617.02c0,0,44.33-132.48,188.73-137.66c0,0-87.89,19.44-138.96,137.66H82.59z"/>
			<path class="st1" d="M1006.5,614.03c0,0-63.1-0.24-119.07-70.27l60.3-57.89h-41.22l-41.05,39.31v-39.31h-29.11v131.16h29.11
				v-47.2C891.28,595.12,938.34,626.29,1006.5,614.03z"/>
			<path class="st0" d="M161.26,442.75l-39.72,88.04c15.79-16.26,33.48-29.71,52.74-40.06c16.28-8.75,33.67-15.28,52.01-19.54
				l-22.18-48.74C188.07,424.96,173.25,432.01,161.26,442.75z"/>
			<path class="st2" d="M162.71,372.47l106.01-12.62c1.63-0.19,2.79,0.2,3.15,1.06c0.36,0.87-0.17,1.96-1.45,2.99l-33.91,27.11
				c-21.31,1.74-42.1,7.53-61.25,17.06c18.87-6.41,43.37-12.03,60.19-11.42l9.55,22.81c-13-4.65-27.27-6.34-41.89-4.36
				c-31.26,4.23-56.52,24.2-68.89,50.84l-11.09-26.49l-35.65,4.24l2.62,31.95c2.57,0.7,4.54,2.94,4.77,5.74
				c0.25,3.05-1.65,5.78-4.43,6.7l4.57,17.18l6.79,25.5l-9.34,0.77l-9.34,0.77l2.55-26.27l1.72-17.69
				c-2.89-0.45-5.21-2.84-5.46-5.88c-0.23-2.8,1.36-5.33,3.77-6.44l-2.61-31.79l-6.33,0.75c-1.63,0.19-2.79-0.2-3.15-1.06
				c-0.36-0.87,0.17-1.96,1.45-2.99l83.38-66.67C159.66,373.29,161.18,372.65,162.71,372.47z"/>
			<g>
				<path class="st0" d="M405.9,635.34v70.83h43.85v12.36h-57.17v-83.19H405.9z"/>
				<path class="st0" d="M523.79,718.53h-61.44c0-27.69,0-55.5,0-83.19h61.09v12.96h-47.78v22.46h45.87v12.36h-45.87v22.34h48.13
					V718.53z"/>
				<path class="st0" d="M598.54,701.06h-45.04l-7.84,17.47h-14.14l37.32-83.19h14.5l37.32,83.19H606.5L598.54,701.06z
					 M576.07,649.36l-17.59,39.58h35.18L576.07,649.36z"/>
				<path class="st0" d="M703.94,718.53h-15.57l-25.31-28.76h-17.59v28.76h-13.31v-83.31c12.95,0,25.79,0.12,38.74,0.12
					c19.25,0,29.35,13.19,29.35,27.22c0,11.89-6.18,23.53-22.58,25.91l24.84,27.69L703.94,718.53z M645.47,647.46v30.19h25.31
					c11.05,0,15.92-7.01,15.92-14.85c0-7.49-4.87-15.33-15.81-15.33H645.47z"/>
				<path class="st0" d="M775.24,694.52v-59.19h13.31v83.19h-10.1l-47.18-58.71v58.71h-13.43v-83.19h10.22L775.24,694.52z"/>
				<path class="st0" d="M809.46,718.53v-83.19h13.19v83.19H809.46z"/>
				<path class="st0" d="M900.97,694.52v-59.19h13.31v83.19h-10.1L857,659.82v58.71h-13.43v-83.19h10.22L900.97,694.52z"/>
				<path class="st0" d="M996.28,654.47c-5.94-5.82-14.74-8.91-22.46-8.91c-19.49,0-30.78,14.62-30.66,32.21
					c0,15.21,9.03,29.95,30.66,29.95c7.13,0,13.67-1.78,20.32-7.37v-16.87h-23.18v-11.89h35.54v34.11
					c-8.32,9.15-18.66,14.5-32.68,14.5c-30.54,0-43.74-20.32-43.74-42.43c0-24.01,15.33-44.45,43.74-44.45
					c11.05,0,22.22,4.16,30.78,12.6L996.28,654.47z"/>
			</g>
		</g>
	</g>
	<g>
		<g>
			<path class="st3" d="M369.24,551.37c6.19-7.24,9.33-15.71,9.33-25.17c0-11.93-4.87-21.83-14.47-29.43
				c-9.15-7.24-20.97-10.91-35.15-10.91h-32.09v131.16h29.11v-39.26l26.48,39.26h34.2l-36.2-53.33
				C358.42,560.78,364.72,556.65,369.24,551.37z M348.72,527.14c0,3.62-0.98,6.27-3.08,8.32c-2.52,2.46-7.95,5.28-19.68,5.82v-28.05
				c5.25,0.2,9.4,0.68,12.38,1.41c3.35,0.83,5.9,2.29,7.81,4.47C347.88,521.09,348.72,523.72,348.72,527.14z"/>
			<path class="st3" d="M506.65,502.11c-13.93-13.41-30.77-20.22-50.05-20.22c-19.69,0-36.8,6.74-50.84,20.04
				c-14.15,13.39-21.32,29.73-21.32,48.56c0,19.4,7.05,36.15,20.96,49.78c13.87,13.59,30.91,20.49,50.65,20.49
				c19.98,0,37.1-6.85,50.88-20.35c13.82-13.54,20.83-30.33,20.83-49.92C527.75,531.87,520.65,515.59,506.65,502.11z M457.25,590.91
				c-12.26,0-22.3-3.81-30.69-11.65c-8.26-7.72-12.28-16.89-12.28-28.03c0-11.01,3.93-20.19,12.01-28.08
				c8.12-7.93,17.61-11.78,29.01-11.78c12.12,0,22.01,3.8,30.23,11.61c8.13,7.72,12.08,16.96,12.08,28.25
				c0,10.83-3.91,19.95-11.94,27.87C477.63,587.04,468.33,590.91,457.25,590.91z"/>
			<path class="st3" d="M571.18,485.86h-35.15v131.16h35.33c23.57,0,41.93-6.7,54.59-19.9c12.58-13.13,18.97-28.5,18.97-45.68
				c0-17.01-6.17-32.31-18.33-45.5C614.3,492.62,595.66,485.86,571.18,485.86z M565.14,514.6h1.68c11.26,0,20.23,1.15,26.64,3.43
				c5.89,2.09,10.89,6.16,15.27,12.44c4.4,6.31,6.54,13.17,6.54,20.97c0,6.21-1.33,11.72-4.06,16.85
				c-2.73,5.12-6.29,9.11-10.88,12.19c-4.67,3.13-9.64,5.18-14.79,6.1c-4.71,0.84-11.56,1.34-20.4,1.48V514.6z"/>
			<polygon class="st3" points="678.23,560.43 727.77,560.43 727.77,531.51 678.23,531.51 678.23,514.97 727.77,514.97 
				727.77,485.86 649.31,485.86 649.31,617.02 727.77,617.02 727.77,588.1 678.23,588.1 			"/>
			<path class="st3" d="M812.37,552.01c-3.12-3.91-7.12-7.5-11.89-10.67c-4.6-3.06-10.74-6.22-18.76-9.67
				c-8.64-3.71-12.61-6.37-14.42-7.94c-2.22-1.93-2.5-3.47-2.5-4.59c0-1.43,0.33-3.13,2.74-4.88c2.46-1.79,5.93-2.69,10.31-2.69
				c5.3,0,7.74,1.03,8.72,1.65c2.35,1.47,5.1,3.84,8.18,7.03l4.1,4.26l22.66-18.16l-3.89-5.04c-5.07-6.56-11.5-11.52-19.13-14.72
				c-7.39-3.11-14.82-4.68-22.09-4.68c-11.28,0-21.05,3.55-29.04,10.55c-8.24,7.22-12.41,16.14-12.41,26.52
				c0,4.32,0.76,8.45,2.26,12.28c1.46,3.73,3.74,7.46,6.79,11.11c3.03,3.62,6.65,6.78,10.78,9.39c3.93,2.48,9.26,5.09,16.28,7.97
				c7.66,3.14,11.44,5.3,13.25,6.55c2.33,1.61,4.23,3.61,5.82,6.13c1.39,2.2,2.07,4.23,2.07,6.21c0,3.52-1.18,6.23-3.71,8.51
				c-2.69,2.42-6.06,3.6-10.32,3.6c-5.99,0-14.7-1.67-21.07-16.08l-2.27-5.14l-28.36,7.99l2.49,6.61c4.52,12,11.18,21.2,19.79,27.34
				c8.66,6.19,18.75,9.33,29.98,9.33c11.84,0,22.08-4.11,30.44-12.21c8.42-8.16,12.69-18.18,12.69-29.78
				c0-4.92-0.79-9.67-2.36-14.11C817.92,560.21,815.53,555.96,812.37,552.01z"/>
			<path class="st3" d="M242.51,506.82c-4.63,2.65-9.59,5.76-14.77,9.41c-15.06,10.6-33.98,27.22-52.1,52.31h45.27l22.06,48.48
				h49.69L242.51,506.82z"/>
			<path class="st4" d="M82.59,617.02c0,0,44.33-132.48,188.73-137.66c0,0-87.89,19.44-138.96,137.66H82.59z"/>
			<path class="st4" d="M1006.5,614.03c0,0-63.1-0.24-119.07-70.27l60.3-57.89h-41.22l-41.05,39.31v-39.31h-29.11v131.16h29.11
				v-47.2C891.28,595.12,938.34,626.29,1006.5,614.03z"/>
			<path class="st3" d="M161.26,442.75l-39.72,88.04c15.79-16.26,33.48-29.71,52.74-40.06c16.28-8.75,33.67-15.28,52.01-19.54
				l-22.18-48.74C188.07,424.96,173.25,432.01,161.26,442.75z"/>
			<path class="st5" d="M162.71,372.47l106.01-12.62c1.63-0.19,2.79,0.2,3.15,1.06c0.36,0.87-0.17,1.96-1.45,2.99l-33.91,27.11
				c-21.31,1.74-42.1,7.53-61.25,17.06c18.87-6.41,43.37-12.03,60.19-11.42l9.55,22.81c-13-4.65-27.27-6.34-41.89-4.36
				c-31.26,4.23-56.52,24.2-68.89,50.84l-11.09-26.49l-35.65,4.24l2.62,31.95c2.57,0.7,4.54,2.94,4.77,5.74
				c0.25,3.05-1.65,5.78-4.43,6.7l4.57,17.18l6.79,25.5l-9.34,0.77l-9.34,0.77l2.55-26.27l1.72-17.69
				c-2.89-0.45-5.21-2.84-5.46-5.88c-0.23-2.8,1.36-5.33,3.77-6.44l-2.61-31.79l-6.33,0.75c-1.63,0.19-2.79-0.2-3.15-1.06
				c-0.36-0.87,0.17-1.96,1.45-2.99l83.38-66.67C159.66,373.29,161.18,372.65,162.71,372.47z"/>
			<g>
				<path class="st3" d="M405.9,635.34v70.83h43.85v12.36h-57.17v-83.19H405.9z"/>
				<path class="st3" d="M523.79,718.53h-61.44c0-27.69,0-55.5,0-83.19h61.09v12.96h-47.78v22.46h45.87v12.36h-45.87v22.34h48.13
					V718.53z"/>
				<path class="st3" d="M598.54,701.06h-45.04l-7.84,17.47h-14.14l37.32-83.19h14.5l37.32,83.19H606.5L598.54,701.06z
					 M576.07,649.36l-17.59,39.58h35.18L576.07,649.36z"/>
				<path class="st3" d="M703.94,718.53h-15.57l-25.31-28.76h-17.59v28.76h-13.31v-83.31c12.95,0,25.79,0.12,38.74,0.12
					c19.25,0,29.35,13.19,29.35,27.22c0,11.89-6.18,23.53-22.58,25.91l24.84,27.69L703.94,718.53z M645.47,647.46v30.19h25.31
					c11.05,0,15.92-7.01,15.92-14.85c0-7.49-4.87-15.33-15.81-15.33H645.47z"/>
				<path class="st3" d="M775.24,694.52v-59.19h13.31v83.19h-10.1l-47.18-58.71v58.71h-13.43v-83.19h10.22L775.24,694.52z"/>
				<path class="st3" d="M809.46,718.53v-83.19h13.19v83.19H809.46z"/>
				<path class="st3" d="M900.97,694.52v-59.19h13.31v83.19h-10.1L857,659.82v58.71h-13.43v-83.19h10.22L900.97,694.52z"/>
				<path class="st3" d="M996.28,654.47c-5.94-5.82-14.74-8.91-22.46-8.91c-19.49,0-30.78,14.62-30.66,32.21
					c0,15.21,9.03,29.95,30.66,29.95c7.13,0,13.67-1.78,20.32-7.37v-16.87h-23.18v-11.89h35.54v34.11
					c-8.32,9.15-18.66,14.5-32.68,14.5c-30.54,0-43.74-20.32-43.74-42.43c0-24.01,15.33-44.45,43.74-44.45
					c11.05,0,22.22,4.16,30.78,12.6L996.28,654.47z"/>
			</g>
		</g>
	</g>
</g>
</svg>
